<svg xmlns="http://www.w3.org/2000/svg" width="15.99" height="22.691" viewBox="0 0 15.99 22.691">
  <g id="Bookmark" transform="translate(-441.726 -1024.992)">
    <g id="Compound_Path" data-name="Compound Path" transform="translate(416.816 1010.583)" fill="none">
      <path d="M39.625,14.41H26.185a1.275,1.275,0,0,0-1.275,1.275V35.817a1.275,1.275,0,0,0,2.106.956l5.474-4.7a.637.637,0,0,1,.832,0l5.471,4.707a1.269,1.269,0,0,0,2.106-.959V15.685A1.275,1.275,0,0,0,39.625,14.41Z" stroke="none"/>
      <path d="M 26.40999603271484 15.90999603271484 L 26.40999603271484 35.31699371337891 L 31.51202774047852 30.9395866394043 C 31.89973831176758 30.60573577880859 32.39501953125 30.42187690734863 32.90664672851563 30.42187690734863 C 33.41824722290039 30.42187690734863 33.91352844238281 30.60572624206543 34.30069732666016 30.93909645080566 L 39.40012741088867 35.32573699951172 L 39.40012741088867 15.90999603271484 L 26.40999603271484 15.90999603271484 M 26.18461608886719 14.40999603271484 L 39.62549591064453 14.40999603271484 C 40.32946014404297 14.40999603271484 40.90012741088867 14.98066711425781 40.90012741088867 15.68462753295898 L 40.90012741088867 35.82363510131836 C 40.90077972412109 36.32222747802734 40.61065673828125 36.77542877197266 40.15758514404297 36.98356628417969 C 39.98980712890625 37.06121826171875 39.80712890625 37.10143661499023 39.62231826782227 37.10143661499023 C 39.31688690185547 37.09792709350586 39.02286529541016 36.98484802246094 38.79380798339844 36.78278732299805 L 33.3224983215332 32.07624816894531 C 33.20298385620117 31.97333717346191 33.05481719970703 31.9218807220459 32.90665435791016 31.9218807220459 C 32.75848770141602 31.9218807220459 32.61032104492188 31.97333717346191 32.49080657958984 32.07624816894531 L 27.01630783081055 36.77322769165039 C 26.78042221069336 36.97635269165039 26.48407363891602 37.08200454711914 26.18435287475586 37.08200454711914 C 26.00601577758789 37.08200454711914 25.82646179199219 37.04458618164063 25.65779876708984 36.96803665161133 C 25.2056770324707 36.76283645629883 24.91384887695313 36.31376647949219 24.90999603271484 35.81725692749023 L 24.90999603271484 15.68462753295898 C 24.90999603271484 14.98066711425781 25.48066711425781 14.40999603271484 26.18461608886719 14.40999603271484 Z" stroke="none" fill="#1a4d2c"/>
    </g>
  </g>
</svg>
