<svg xmlns="http://www.w3.org/2000/svg" width="15.678" height="15.677" viewBox="0 0 15.678 15.677">
  <g id="noun_edit_308016" transform="translate(-36.023 -90.298)">
    <g id="Group_442" data-name="Group 442" transform="translate(30.024 84.298)">
      <g id="Group_441" data-name="Group 441" transform="translate(6 6)">
        <path id="Path_249" data-name="Path 249" d="M20.252,20.252a1.426,1.426,0,0,1-1.425,1.425H7.425A1.426,1.426,0,0,1,6,20.252V8.85A1.426,1.426,0,0,1,7.425,7.425h8.913L14.913,8.85H7.425v11.4h11.4V12.408l1.425-1.425v9.269ZM20.144,9.033l-8.363,8.393-2.219.688.685-2.228L18.61,7.493l1.534,1.54Zm1.321-2.307a.725.725,0,0,1,0,1.026l-.511.513-1.534-1.54.511-.513a.722.722,0,0,1,1.022,0l.512.514Z" transform="translate(-6 -6)" fill="#aeaeae" fill-rule="evenodd"/>
      </g>
    </g>
  </g>
</svg>
