<svg xmlns="http://www.w3.org/2000/svg" xmlns:xlink="http://www.w3.org/1999/xlink" width="35" height="20" viewBox="0 0 35 20"><defs><style>.a{fill:none;}.b{clip-path:url(#a);}.c{fill:#00b162;}</style><clipPath id="a"><rect class="a" width="35" height="20"/></clipPath></defs><g class="b"><path class="c" d="M0,0H35a0,0,0,0,1,0,0V2a2,2,0,0,1-2,2H2A2,2,0,0,1,0,2V0A0,0,0,0,1,0,0Z"/><rect class="c" width="35" height="4" rx="2" transform="translate(0 8)"/><path class="c" d="M2,0H33a2,2,0,0,1,2,2V4a0,0,0,0,1,0,0H0A0,0,0,0,1,0,4V2A2,2,0,0,1,2,0Z" transform="translate(0 16)"/></g></svg>