<svg xmlns="http://www.w3.org/2000/svg" width="12.173" height="11.632" viewBox="0 0 12.173 11.632">
  <path id="Path_224" data-name="Path 224" d="M1316.673-92.189v4.5h-2.609v-4.2c0-1.055-.377-1.775-1.321-1.775a1.428,1.428,0,0,0-1.339.954,1.776,1.776,0,0,0-.087.636v4.383h-2.61s.035-7.112,0-7.849h2.61v1.113l-.018.025h.018v-.025a2.591,2.591,0,0,1,2.351-1.3C1315.386-95.721,1316.673-94.6,1316.673-92.189Zm-10.7-7.132a1.362,1.362,0,0,0-1.477,1.356,1.352,1.352,0,0,0,1.442,1.357h.018a1.362,1.362,0,0,0,1.477-1.357A1.356,1.356,0,0,0,1305.977-99.32Zm-1.322,11.632h2.608v-7.849h-2.608Z" transform="translate(-1304.5 99.321)" fill="#1a4d2c"/>
</svg>
