<svg xmlns="http://www.w3.org/2000/svg" width="223.131" height="26.042" viewBox="0 0 223.131 26.042">
  <g id="Group_11" data-name="Group 11" transform="translate(-69.656 -369.404)">
    <path id="Path_166" data-name="Path 166" d="M592.274,390.312H596.2l3.112,8.2,3.294-8.2h3.966l2.318,15.333H604.9l-1.118-8.826h-.04l-3.681,8.826h-1.587l-3.518-8.826h-.04l-1.282,8.826h-3.965Z" transform="translate(-379.675 -15.265)" fill="#26b054"/>
    <path id="Path_167" data-name="Path 167" d="M235.441,405.784h-3.693l-3.086-9.391-3.086,9.391h-3.671l-4.955-15.405h4.032l2.86,9.5,3.244-9.5h3.153l3.243,9.5,2.86-9.5h4.031Z" transform="translate(-107.544 -15.314)" fill="#414042"/>
    <path id="Path_168" data-name="Path 168" d="M319.313,399.456v6.238h-3.649v-5.653c0-1.554-.788-2.3-2-2.3a2.735,2.735,0,0,0-1.982,1.081v6.869h-3.671V390.379h3.671v5.113a4.714,4.714,0,0,1,3-1.059C317.421,394.433,319.313,396.347,319.313,399.456Z" transform="translate(-174.026 -15.314)" fill="#414042"/>
    <path id="Path_169" data-name="Path 169" d="M366.624,411.433a5.927,5.927,0,1,1-5.9-5.7A5.6,5.6,0,0,1,366.624,411.433Zm-3.446.023a2.472,2.472,0,1,0-2.455,2.635A2.477,2.477,0,0,0,363.178,411.456Z" transform="translate(-208.174 -26.526)" fill="#414042"/>
    <path id="Path_170" data-name="Path 170" d="M407.764,405.565h-3.671V390.2h3.671Z" transform="translate(-244.18 -15.185)" fill="#414042"/>
    <path id="Path_171" data-name="Path 171" d="M424.012,387.111a2.141,2.141,0,1,1,2.14,2.049A2.068,2.068,0,0,1,424.012,387.111ZM428,401.794h-3.649V390.871H428Z" transform="translate(-258.724 -11.415)" fill="#414042"/>
    <path id="Path_172" data-name="Path 172" d="M446.806,413.046c.157.946.946,1.373,2.072,1.373.968,0,1.576-.293,1.576-.765,0-.361-.338-.654-1.059-.766l-2.207-.383c-1.892-.315-3.221-1.374-3.221-3.288,0-2.3,1.982-3.648,4.887-3.648,2.32,0,4.932.9,5.112,3.783H450.7c-.067-.833-.833-1.216-1.846-1.216-.924,0-1.374.36-1.374.789,0,.36.271.7,1.149.856l2.027.337c2.05.383,3.423,1.374,3.423,3.311,0,2.522-2.275,3.694-5.135,3.694-2.837,0-5.158-1.194-5.383-4.1Z" transform="translate(-272.998 -26.405)" fill="#414042"/>
    <path id="Path_173" data-name="Path 173" d="M490.373,396.6v-3.716h-3.648V396.6h-2.139v3.13h2.139v3.243c0,2.951,1.757,4.887,4.392,4.887a9.6,9.6,0,0,0,3.31-.541l-.405-3.085a10.885,10.885,0,0,1-1.937.27,1.506,1.506,0,0,1-1.712-1.644V399.73h5.49v7.793h3.648V396.6h-9.139Z" transform="translate(-302.95 -17.143)" fill="#414042"/>
    <path id="Path_174" data-name="Path 174" d="M527.26,389.16a2.062,2.062,0,1,0-2.139-2.049A2.078,2.078,0,0,0,527.26,389.16Z" transform="translate(-332.546 -11.415)" fill="#414042"/>
    <path id="Path_175" data-name="Path 175" d="M553.245,412.424h3.445a5.3,5.3,0,0,1-5.607,4.729,5.715,5.715,0,1,1,0-11.418,5.3,5.3,0,0,1,5.607,4.729h-3.445a2.051,2.051,0,0,0-2.14-1.644,2.626,2.626,0,0,0,0,5.247A2.051,2.051,0,0,0,553.245,412.424Z" transform="translate(-347.143 -26.526)" fill="#414042"/>
    <path id="Path_176" data-name="Path 176" d="M674.617,416.906h-3.648V416.3a5.4,5.4,0,0,1-3,.833,5.7,5.7,0,0,1,0-11.4,5.4,5.4,0,0,1,3,.833v-.586h3.648Zm-3.648-3.784v-3.4a2.893,2.893,0,0,0-2.253-1.013,2.717,2.717,0,0,0,0,5.428A2.82,2.82,0,0,0,670.969,413.122Z" transform="translate(-432.882 -26.526)" fill="#26b054"/>
    <path id="Path_177" data-name="Path 177" d="M728.576,404.235a10.891,10.891,0,0,1-1.937.27,1.506,1.506,0,0,1-1.712-1.644V399.73h3.716V396.6h-3.716v-3.716h-3.648V396.6h-4.6v-3.716h-3.648V396.6H710.9v3.13h2.139v3.243c0,2.951,1.757,4.887,4.392,4.887a9.6,9.6,0,0,0,3.31-.541l-.405-3.085a10.891,10.891,0,0,1-1.937.27,1.506,1.506,0,0,1-1.712-1.644V399.73h4.6v3.243c0,2.951,1.757,4.887,4.392,4.887a9.6,9.6,0,0,0,3.31-.541Z" transform="translate(-468.184 -17.143)" fill="#26b054"/>
    <path id="Path_178" data-name="Path 178" d="M791.664,412.514h-7.77a2.359,2.359,0,0,0,2.455,1.757,1.88,1.88,0,0,0,1.667-.788h3.626c-.541,2.252-2.635,3.671-5.337,3.671-3.582,0-5.969-2.387-5.969-5.721a5.5,5.5,0,0,1,5.833-5.7,5.311,5.311,0,0,1,5.563,5.473A8.434,8.434,0,0,1,791.664,412.514Zm-7.793-2.139h4.437a2.024,2.024,0,0,0-2.162-1.825A2.207,2.207,0,0,0,783.871,410.375Z" transform="translate(-518.883 -26.526)" fill="#26b054"/>
    <path id="Path_179" data-name="Path 179" d="M835.593,409.455a5.293,5.293,0,0,0-3.761,1.374v6.261h-3.671V406.167h3.671v1.171a5.467,5.467,0,0,1,3.761-1.351Z" transform="translate(-553.802 -26.71)" fill="#26b054"/>
    <path id="Path_180" data-name="Path 180" d="M860.715,413.046c.157.946.946,1.373,2.072,1.373.968,0,1.576-.293,1.576-.765,0-.361-.338-.654-1.059-.766l-2.207-.383c-1.892-.315-3.221-1.374-3.221-3.288,0-2.3,1.982-3.648,4.888-3.648,2.32,0,4.932.9,5.112,3.783h-3.266c-.068-.833-.833-1.216-1.847-1.216-.923,0-1.374.36-1.374.789,0,.36.27.7,1.148.856l2.027.337c2.049.383,3.424,1.374,3.424,3.311,0,2.522-2.275,3.694-5.135,3.694-2.837,0-5.157-1.194-5.383-4.1Z" transform="translate(-575.203 -26.405)" fill="#26b054"/>
    <g id="Group_9" data-name="Group 9" transform="translate(69.656 369.404)">
      <path id="Path_181" data-name="Path 181" d="M86.625,397.955V384.626a5.811,5.811,0,0,0-1.129-3.442,5.148,5.148,0,0,1,.668,2.487c0,5.312-6.852,8.1-6.852,14.712.021.164.043.328.077.488a5.85,5.85,0,0,0,4.067,4.525,6.08,6.08,0,0,0,1.9.3H89.3v-.16C87.238,402.906,86.736,400.438,86.625,397.955Z" transform="translate(-76.706 -378.005)" fill="#26b054"/>
      <path id="Path_182" data-name="Path 182" d="M78.446,374.676a5.835,5.835,0,0,0-4.719-2.405H69.656v.154c2.908.9,2.581,5.606,2.581,8.559L72.205,391.1a5.949,5.949,0,0,0,.057.78c0-6.613,6.852-9.4,6.852-14.712A5.148,5.148,0,0,0,78.446,374.676Z" transform="translate(-69.656 -371.497)" fill="#1b9446"/>
      <path id="Path_183" data-name="Path 183" d="M156.9,385.962c0,8.449-3.642,10.776-4.868,11.319a2.9,2.9,0,0,1-1.433.982v.159h3.91a6.079,6.079,0,0,0,1.428-.175,5.848,5.848,0,0,0,4.678-5.73v-10.3c0-2.711-.269-6.9,1.94-8.257C161.469,374.027,156.9,374.978,156.9,385.962Z" transform="translate(-128.752 -372.728)" fill="#26b054"/>
      <path id="Path_184" data-name="Path 184" d="M163,372.272a5.85,5.85,0,0,0-5.847,5.847s0,13.133,0,13.134-.075,1.345-.168,1.95a5.986,5.986,0,0,1-1.077,2.849c1.226-.544,4.868-2.87,4.868-11.319,0-10.984,4.572-11.935,5.656-12.006a2.778,2.778,0,0,1,.645-.3v-.153Z" transform="translate(-132.628 -371.498)" fill="#1b9446"/>
      <path id="Path_185" data-name="Path 185" d="M127.84,379.722a23.984,23.984,0,0,1-.619,9.907,23.024,23.024,0,0,1-5.084,9.8,6.858,6.858,0,0,0,3.034,3.548s3.8-1.743,3.8-7.7V384.642A10.141,10.141,0,0,0,127.84,379.722Z" transform="translate(-107.974 -376.937)" fill="#26b054"/>
      <path id="Path_186" data-name="Path 186" d="M125.763,372.189a6.6,6.6,0,0,0-2.669-2.785s-3.8,1.743-3.8,7.7v10.633a11.051,11.051,0,0,0,.564,3.62c.064.186.133.364.2.536a23.024,23.024,0,0,0,5.084-9.8A23.984,23.984,0,0,0,125.763,372.189Z" transform="translate(-105.896 -369.404)" fill="#1b9446"/>
    </g>
  </g>
</svg>
