<svg xmlns="http://www.w3.org/2000/svg" width="15.722" height="22.357" viewBox="0 0 15.722 22.357">
  <g id="Share_Icon" data-name="Share Icon" transform="translate(-967 -435)">
    <g id="noun_Share_1247095" transform="translate(957 420)">
      <g id="Group_892" data-name="Group 892" transform="translate(10.003 15)">
        <g id="Group_891" data-name="Group 891" transform="translate(0 0)">
          <path id="Path_291" data-name="Path 291" d="M36.478,15.263l5.591,5.646a.714.714,0,1,1-1.008,1.01l-4.233-4.242c-.143-.143-.254-.1-.254.1V30.7a.713.713,0,1,1-1.426,0V17.779c0-.2-.114-.241-.254-.1L30.659,21.92a.714.714,0,1,1-1.008-1.01l5.568-5.646A.884.884,0,0,1,36.478,15.263ZM32.287,24.08a.715.715,0,0,1,0,1.429h-2.5a.358.358,0,0,0-.357.36l0,9.7a.359.359,0,0,0,.36.36H41.928a.359.359,0,0,0,.36-.36l0-9.7a.36.36,0,0,0-.357-.36h-2.5a.715.715,0,0,1,0-1.429h2.5a1.789,1.789,0,0,1,1.786,1.789l0,9.7a1.788,1.788,0,0,1-1.789,1.789H29.786A1.788,1.788,0,0,1,28,35.569l0-9.7a1.787,1.787,0,0,1,1.786-1.789Z" transform="translate(-28 -15)" fill="#1a4d2c" fill-rule="evenodd"/>
        </g>
      </g>
    </g>
  </g>
</svg>
