<svg xmlns="http://www.w3.org/2000/svg" xmlns:xlink="http://www.w3.org/1999/xlink" width="392" height="200" viewBox="0 0 392 200"><defs><style>.a{fill:#661e33;}.b{clip-path:url(#a);}.c{fill:#7b1f3d;}.d{fill:#7c1d3c;}.e{fill:#f06879;}.f{fill:#fff;}.g{fill:#c95669;isolation:isolate;}.h,.i{fill:#f36777;}.h{font-size:11px;font-family:AktivGroteskTrial-XBold, Aktiv Grotesk Trial;font-weight:700;letter-spacing:0.2em;}</style><clipPath id="a"><rect class="a" width="392" height="200" rx="5" transform="translate(868 603)"/></clipPath></defs><g transform="translate(15187 -1074)"><rect class="a" width="392" height="200" rx="5" transform="translate(-15187 1074)"/><g class="b" transform="translate(-16055 471)"><path class="c" d="M2479.439-1110.837c14.975,9.293,37.2,20.694,56.124,18.21,20.028-2.629,18.424-18.462,39.719-22.112,26.986-4.626,44.656,18.216,87.208,19.511,42.915,1.306,53.151-21.069,98.433-20.378,40.246.614,46.777,18.512,85.481,17.777,39.65-.754,46.259-19.793,82.028-18.644,36.892,1.185,59.96,22.407,79.437,17.343,9.712-2.525,9.722-9.3,19.859-9.972,10.6-.708,14.354,6.449,25.9,6.937,19.295.815,29.478-18.288,45.763-17.343,14.957.867,19.36,17.736,31.948,17.343,7.254-.226,7.434-5.881,17.269-7.371,13.929-2.11,23.534,7.724,37.991,6.5,16.61-1.4,18.931-15.65,30.22-15.609,13.516.049,18,20.5,31.948,20.812,13.685.3,20.08-19.158,36.265-19.511,10.2-.222,19.159,7.251,25.04,13.441v43.358H2479.439v-48.56" transform="translate(-2049.805 1812.542)"/><rect class="d" width="421" height="129" transform="translate(861 744)"/></g><g transform="translate(-15165.231 1092.658)"><circle class="e" cx="24.342" cy="24.342" r="24.342"/><g transform="translate(7.602 12.71)"><path class="f" d="M975.768-1742.237a7.863,7.863,0,0,0-3.715,7.53v10.394a7.86,7.86,0,0,0,3.715,7.53,7.86,7.86,0,0,0,3.715-7.53v-10.394A7.862,7.862,0,0,0,975.768-1742.237Z" transform="translate(-959.052 1742.237)"/><path class="f" d="M885.732-1718.478v-.19c-.025-.969,0-12.762,0-12.762a5.682,5.682,0,0,0-5.68-5.68H876.09v.149c2.825.872,2.506,5.447,2.506,8.318v5.332h-.023v4.5a5.968,5.968,0,0,0,.129,1.232,5.685,5.685,0,0,0,3.953,4.4,5.886,5.886,0,0,0,1.843.3h3.833v-.156C886.328-1713.667,885.841-1716.065,885.732-1718.478Z" transform="translate(-876.09 1737.803)"/><path class="f" d="M1041.529-1737.138a5.685,5.685,0,0,0-5.68,5.68s.016,7.686,0,11.157v1.68c-.1,2.452-.571,4.915-2.6,5.542v.156h3.8a5.9,5.9,0,0,0,1.388-.172,5.683,5.683,0,0,0,4.546-5.567v-10.013c0-2.868-.319-7.448,2.511-8.318v-.149Z" transform="translate(-1012.017 1737.831)"/></g></g><g transform="translate(-15158 1246.021)"><path class="f" d="M852.272-1117.167h2.37a3.879,3.879,0,0,1,1.238.169,2.005,2.005,0,0,1,.781.457,1.586,1.586,0,0,1,.4.67,2.815,2.815,0,0,1,.115.817,2.877,2.877,0,0,1-.12.839,1.66,1.66,0,0,1-.413.692,1.985,1.985,0,0,1-.777.466,3.73,3.73,0,0,1-1.212.169h-.737v2.06h-1.651Zm1.651,2.921h.728a1.069,1.069,0,0,0,.741-.2.793.793,0,0,0,.209-.6.739.739,0,0,0-.213-.586,1.143,1.143,0,0,0-.746-.187h-.719Z" transform="translate(-852.272 1117.327)"/><path class="f" d="M896.428-1118.053a3.542,3.542,0,0,1,1.323.231,2.641,2.641,0,0,1,.972.657,2.815,2.815,0,0,1,.6,1.039,4.336,4.336,0,0,1,.2,1.376,4.364,4.364,0,0,1-.209,1.394,2.9,2.9,0,0,1-.608,1.056,2.663,2.663,0,0,1-.986.67,3.58,3.58,0,0,1-1.34.235,3.542,3.542,0,0,1-1.323-.231,2.641,2.641,0,0,1-.972-.657,2.812,2.812,0,0,1-.6-1.039,4.336,4.336,0,0,1-.2-1.376,4.36,4.36,0,0,1,.209-1.394,2.9,2.9,0,0,1,.608-1.056,2.668,2.668,0,0,1,.986-.67A3.576,3.576,0,0,1,896.428-1118.053Zm-1.376,3.329a2.388,2.388,0,0,0,.337,1.389,1.168,1.168,0,0,0,1.021.475,1.157,1.157,0,0,0,1.016-.475,2.414,2.414,0,0,0,.333-1.389,2.414,2.414,0,0,0-.333-1.389,1.158,1.158,0,0,0-1.016-.475,1.169,1.169,0,0,0-1.021.475A2.388,2.388,0,0,0,895.052-1114.724Z" transform="translate(-885.89 1118.053)"/><path class="f" d="M942.964-1110.828v-6.339h2.495a3.3,3.3,0,0,1,2.393.79,3.077,3.077,0,0,1,.812,2.308,3.21,3.21,0,0,1-.857,2.4,3.351,3.351,0,0,1-2.446.839Zm1.7-1.438h.719a1.375,1.375,0,0,0,1.145-.457,2.027,2.027,0,0,0,.364-1.292,2.063,2.063,0,0,0-.337-1.274,1.279,1.279,0,0,0-1.083-.439h-.808Z" transform="translate(-926.611 1117.327)"/><path class="f" d="M994.692-1113.872a3.1,3.1,0,0,1-.222.977,2.284,2.284,0,0,1-.533.786,2.452,2.452,0,0,1-.861.524,3.439,3.439,0,0,1-1.2.191,3.431,3.431,0,0,1-1.341-.24,2.492,2.492,0,0,1-.941-.675,2.875,2.875,0,0,1-.559-1.043,4.545,4.545,0,0,1-.186-1.336,4.6,4.6,0,0,1,.191-1.363,2.894,2.894,0,0,1,.577-1.061,2.649,2.649,0,0,1,.959-.693,3.36,3.36,0,0,1,1.345-.248,2.684,2.684,0,0,1,1.833.581,2.708,2.708,0,0,1,.839,1.656l-1.7.2a2.409,2.409,0,0,0-.116-.382.982.982,0,0,0-.191-.306.865.865,0,0,0-.3-.2,1.086,1.086,0,0,0-.426-.076q-1.216,0-1.216,1.855a3.7,3.7,0,0,0,.089.875,1.624,1.624,0,0,0,.253.582.954.954,0,0,0,.391.32,1.252,1.252,0,0,0,.5.1,1,1,0,0,0,1.065-1.012Z" transform="translate(-964.224 1118.053)"/><path class="f" d="M1036.167-1117.167l2.2,6.339H1036.6l-.364-1.216H1034.1l-.355,1.216h-1.713l2.2-6.339Zm-1.651,3.764h1.305l-.648-2.184Z" transform="translate(-999.618 1117.327)"/><path class="f" d="M1080.055-1113.641a.942.942,0,0,0,.328.661,1.281,1.281,0,0,0,.808.218,1.18,1.18,0,0,0,.679-.16.522.522,0,0,0,.226-.453.492.492,0,0,0-.151-.369,1.121,1.121,0,0,0-.55-.226l-.843-.16a3.141,3.141,0,0,1-1.563-.657,1.643,1.643,0,0,1-.506-1.278,1.731,1.731,0,0,1,.679-1.487,3.088,3.088,0,0,1,1.869-.5,3.823,3.823,0,0,1,1.181.16,2.323,2.323,0,0,1,.8.426,1.782,1.782,0,0,1,.471.617,2.439,2.439,0,0,1,.2.732l-1.651.169a.964.964,0,0,0-.306-.568,1.1,1.1,0,0,0-.706-.186,1.129,1.129,0,0,0-.643.147.459.459,0,0,0-.209.4.429.429,0,0,0,.169.355,1.274,1.274,0,0,0,.541.2l.861.169a2.971,2.971,0,0,1,1.589.715,1.733,1.733,0,0,1,.471,1.247,2.187,2.187,0,0,1-.16.852,1.674,1.674,0,0,1-.488.652,2.35,2.35,0,0,1-.834.422,4.183,4.183,0,0,1-1.19.151q-2.636-.018-2.77-2.246Z" transform="translate(-1037.593 1118.053)"/><path class="f" d="M1122.433-1115.72H1120.6v-1.447h5.362v1.447h-1.829v4.892h-1.7Z" transform="translate(-1072.221 1117.327)"/></g><g transform="translate(-16084.744 486)"><path class="e" d="M233.8-1299.363h-5.777l-4.823-14.685-4.823,14.685h-5.739l-7.748-24.078h6.3l4.473,14.862,5.064-14.862h4.929l5.064,14.862,4.486-14.862h6.3Z" transform="translate(714.854 2050.429)"/><path class="e" d="M435.652-1309.258v9.752h-5.705v-8.836c0-2.431-1.232-3.591-3.135-3.591a4.284,4.284,0,0,0-3.1,1.688v10.739h-5.739v-23.935h5.76v7.984a7.373,7.373,0,0,1,4.663-1.654C432.694-1317.111,435.652-1314.12,435.652-1309.258Z" transform="translate(540.19 2050.429)"/><path class="e" d="M546.006-1278.6a8.865,8.865,0,0,1-9.22,9.1,8.91,8.91,0,0,1-9.284-9.085c0-5.14,3.874-8.908,9.284-8.908S546.006-1283.738,546.006-1278.6Zm-5.389.038a3.822,3.822,0,0,0-3.84-4.013,3.812,3.812,0,0,0-3.874,4.013,3.86,3.86,0,0,0,3.874,4.119,3.862,3.862,0,0,0,3.849-4.119Z" transform="translate(450.412 2020.963)"/><path class="e" d="M648.5-1299.89h-5.739v-24.019H648.5Z" transform="translate(355.934 2050.813)"/><path class="e" d="M689.461-1333.9a3.347,3.347,0,0,1,3.2-3.487,3.347,3.347,0,0,1,3.487,3.2,3.347,3.347,0,0,1-3.2,3.487l-.141,0a3.232,3.232,0,0,1-3.344-3.116C689.462-1333.843,689.461-1333.872,689.461-1333.9Zm6.233,22.96h-5.705v-17.078h5.705Z" transform="translate(317.659 2061.863)"/><path class="e" d="M740.339-1276.269c.245,1.481,1.481,2.148,3.241,2.148,1.515,0,2.464-.456,2.464-1.2,0-.565-.527-1.021-1.654-1.2l-3.452-.6c-2.954-.494-5.034-2.148-5.034-5.14,0-3.591,3.1-5.705,7.642-5.705,3.625,0,7.714,1.409,7.992,5.908h-5.106c-.106-1.3-1.3-1.9-2.886-1.9-1.443,0-2.148.565-2.148,1.232,0,.566.422,1.093,1.8,1.338l3.161.532c3.207.6,5.355,2.148,5.355,5.178,0,3.946-3.557,5.777-8.018,5.777s-8.064-1.865-8.419-6.41Z" transform="translate(280.103 2021.347)"/><path class="e" d="M840.275-1311.826v-5.811h-5.7v5.811h-3.346v4.895h3.346v5.064c0,4.612,2.747,7.642,6.866,7.642a15.024,15.024,0,0,0,5.178-.844l-.633-4.823a17.044,17.044,0,0,1-3.03.422,2.353,2.353,0,0,1-2.675-2.57v-4.891h8.583v12.183h5.705v-17.078Z" transform="translate(201.451 2045.671)"/><path class="e" d="M929.427-1329.551a3.224,3.224,0,0,0,3.1-3.344,3.224,3.224,0,0,0-3.344-3.1,3.224,3.224,0,0,0-3.1,3.24,3.249,3.249,0,0,0,3.294,3.2Z" transform="translate(123.701 2060.72)"/><path class="e" d="M985.6-1277.1h5.389c-.422,4.4-4.051,7.393-8.769,7.393-5.355,0-9.334-3.734-9.334-8.946s3.979-8.908,9.334-8.908c4.718,0,8.347,2.992,8.769,7.393H985.6a3.208,3.208,0,0,0-3.346-2.57,3.779,3.779,0,0,0-3.907,4.085,3.806,3.806,0,0,0,3.907,4.119A3.2,3.2,0,0,0,985.6-1277.1Z" transform="translate(85.335 2021.021)"/><g transform="translate(1077.017 726.95)"><path class="g" d="M1081.2-1323.652h6.136l4.865,12.816,5.152-12.816h6.2l3.625,23.977h-6.233l-1.751-13.812h-.063l-5.756,13.8H1090.9l-5.486-13.8h-.063l-2,13.8h-6.22Z" transform="translate(-1077.125 1323.652)"/><path class="g" d="M1266.586-1270.106h-5.705v-.949a8.44,8.44,0,0,1-4.684,1.3,8.659,8.659,0,0,1-8.486-8.908,8.662,8.662,0,0,1,8.486-8.912,8.44,8.44,0,0,1,4.684,1.3v-.916h5.705Zm-5.705-5.908v-5.325a4.525,4.525,0,0,0-3.524-1.582,4.1,4.1,0,0,0-4.051,4.262,4.065,4.065,0,0,0,4.051,4.22,4.41,4.41,0,0,0,3.524-1.582Z" transform="translate(-1216.953 1294.079)"/><path class="g" d="M1388.509-1299.889a17.046,17.046,0,0,1-3.03.422,2.353,2.353,0,0,1-2.675-2.57v-4.9h5.811v-4.895H1382.8v-5.811h-5.7v5.811h-7.174v-5.811h-5.718v5.811h-3.346v4.895h3.346v5.064c0,4.612,2.747,7.642,6.866,7.642a15.024,15.024,0,0,0,5.178-.844l-.633-4.823a17.044,17.044,0,0,1-3.03.422,2.353,2.353,0,0,1-2.675-2.57v-4.891h7.174v5.064c.013,4.621,2.76,7.659,6.883,7.659a15.021,15.021,0,0,0,5.178-.844Z" transform="translate(-1309.704 1318.722)"/><path class="g" d="M1541.168-1276.888h-12.149a3.721,3.721,0,0,0,3.853,2.764,2.942,2.942,0,0,0,2.608-1.232h5.672c-.844,3.519-4.119,5.739-8.347,5.739-5.6,0-9.334-3.734-9.334-8.946s3.629-8.908,9.119-8.908a8.3,8.3,0,0,1,8.7,8.558A13.175,13.175,0,0,1,1541.168-1276.888Zm-12.183-3.346h6.937a3.163,3.163,0,0,0-3.376-2.853,3.456,3.456,0,0,0-3.566,2.853Z" transform="translate(-1442.99 1293.995)"/><path class="g" d="M1646.818-1281.555c-2.781.105-4.541.844-5.882,2.148v9.79H1635.2v-17.078h5.739v1.831a8.545,8.545,0,0,1,5.882-2.11Z" transform="translate(-1534.571 1293.59)"/><path class="g" d="M1709.015-1276.269c.245,1.481,1.481,2.148,3.241,2.148,1.515,0,2.464-.456,2.464-1.2,0-.565-.528-1.021-1.654-1.2l-3.452-.6c-2.954-.494-5.034-2.148-5.034-5.14,0-3.591,3.1-5.705,7.642-5.705,3.625,0,7.714,1.409,7.992,5.908h-5.106c-.105-1.3-1.3-1.9-2.886-1.9-1.443,0-2.148.565-2.148,1.232,0,.566.422,1.093,1.793,1.338l3.169.532c3.2.6,5.355,2.148,5.355,5.178,0,3.946-3.557,5.777-8.018,5.777s-8.064-1.865-8.419-6.41Z" transform="translate(-1590.931 1294.397)"/></g></g><text class="h" transform="translate(-14968.633 1092.975)"><tspan x="82.46" y="11">SEASON 2</tspan><tspan class="f"><tspan x="30.342" y="27">NOW STREAMING</tspan></tspan></text><path class="i" d="M4.136,1.481a1,1,0,0,1,1.728,0L9.123,7.068a1,1,0,0,1-.864,1.5H1.741a1,1,0,0,1-.864-1.5Z" transform="translate(-14944 1111) rotate(90)"/></g></svg>