<svg xmlns="http://www.w3.org/2000/svg" width="20.398" height="20.399" viewBox="0 0 20.398 20.399">
  <g id="noun_Trash_1392339" transform="translate(0 6)">
    <g id="Group_440" data-name="Group 440" transform="translate(0 -6)">
      <g id="Group_439" data-name="Group 439">
        <path id="Path_247" data-name="Path 247" d="M20.4-3.6H0V-24H20.4Z" transform="translate(0 24)" fill="none" fill-rule="evenodd"/>
        <path id="Path_248" data-name="Path 248" d="M16.573,5.825l-.724,11.581A1.7,1.7,0,0,1,14.153,19H7.147a1.7,1.7,0,0,1-1.7-1.594L4.727,5.825H3.637A.637.637,0,0,1,3,5.187H3a.637.637,0,0,1,.637-.637H17.662a.637.637,0,1,1,0,1.275Zm-1.357,0H6.083l.612,11.1a.85.85,0,0,0,.849.8h6.211a.85.85,0,0,0,.849-.8ZM10.65,7.1h0a.6.6,0,0,1,.595.595v8.16h0a.6.6,0,0,1-.595.595h0a.6.6,0,0,1-.595-.595V7.695h0A.6.6,0,0,1,10.65,7.1ZM8.1,7.1h0a.623.623,0,0,1,.622.594l.373,8.2h0a.528.528,0,0,1-.5.551H8.567a.583.583,0,0,1-.583-.552l-.447-8.2h0A.563.563,0,0,1,8.069,7.1Zm5.1,0a.563.563,0,0,1,.563.563q0,.015,0,.031l-.445,8.162h0a.628.628,0,0,1-.627.594.563.563,0,0,1-.563-.563q0-.015,0-.031l.445-8.162A.628.628,0,0,1,13.2,7.1ZM8.95,2h3.4a1.7,1.7,0,0,1,1.7,1.7v.85H7.25V3.7A1.7,1.7,0,0,1,8.95,2Zm.085,1.275a.51.51,0,0,0-.51.51V4.55h4.25V3.785a.51.51,0,0,0-.51-.51Z" transform="translate(-0.45 -0.3)" fill="#aeaeae" fill-rule="evenodd"/>
      </g>
    </g>
  </g>
</svg>
