<svg xmlns="http://www.w3.org/2000/svg" width="11.461" height="9.326" viewBox="0 0 11.461 9.326">
  <path id="Path_218" data-name="Path 218" d="M1244.423-95.1a4.751,4.751,0,0,1-1.35.372,2.358,2.358,0,0,0,1.034-1.3,4.666,4.666,0,0,1-1.494.571,2.347,2.347,0,0,0-1.717-.746,2.352,2.352,0,0,0-2.351,2.353,2.3,2.3,0,0,0,.06.537,6.664,6.664,0,0,1-4.847-2.46,2.355,2.355,0,0,0-.318,1.183,2.358,2.358,0,0,0,1.049,1.96,2.3,2.3,0,0,1-1.069-.294v.029a2.353,2.353,0,0,0,1.887,2.307,2.366,2.366,0,0,1-.619.083,2.212,2.212,0,0,1-.442-.044,2.354,2.354,0,0,0,2.2,1.634,4.714,4.714,0,0,1-2.921,1.008,4.776,4.776,0,0,1-.562-.034,6.573,6.573,0,0,0,3.6,1.064,6.65,6.65,0,0,0,6.7-6.7c0-.1,0-.2-.007-.3A4.789,4.789,0,0,0,1244.423-95.1Z" transform="translate(-1232.962 96.209)" fill="#1a4d2c"/>
</svg>
