<svg xmlns="http://www.w3.org/2000/svg" width="23.923" height="20.505" viewBox="0 0 23.923 20.505">
  <g id="Group_351" data-name="Group 351" transform="translate(0)">
    <path id="Path_242" data-name="Path 242" d="M31.066,14H25.94a.859.859,0,0,0-.854.967l-1.235-.823A.855.855,0,0,0,23.377,14H12.72a2.573,2.573,0,0,0-2.463,1.859L8.131,23.314a3.416,3.416,0,0,0,3.283,4.356h4.274v4.249a2.586,2.586,0,0,0,4.6,1.615l4.974-6.218a.838.838,0,0,0,.674.353h5.126a.854.854,0,0,0,.854-.854V14.854A.854.854,0,0,0,31.066,14ZM18.958,32.467a.877.877,0,0,1-1.562-.548v-5.1a.854.854,0,0,0-.854-.854H11.414a1.708,1.708,0,0,1-1.64-2.178L11.9,16.328a.855.855,0,0,1,.819-.62h10.4l1.967,1.311v7.787Zm11.254-6.506H26.794V15.709h3.417Z" transform="translate(-7.997 -14)"/>
    <path id="Path_243" data-name="Path 243" d="M77,26.854a.854.854,0,1,1,.854.854A.854.854,0,0,1,77,26.854Z" transform="translate(-57.349 -22.583)"/>
  </g>
</svg>
