<svg xmlns="http://www.w3.org/2000/svg" viewBox="0 0 223 25.59"><defs><style>.cls-1{fill:#26b054;}.cls-2{fill:#414042;}.cls-3{fill:#1b9446;}.cls-4{fill:#707071;}.cls-5{fill:#09b256;}</style></defs><title>Asset 1</title><g id="Layer_2" data-name="Layer 2"><g id="Layer_1-2" data-name="Layer 1"><g id="Layer_1-2-2" data-name="Layer 1-2"><g id="Full-Logomark-With-Tagline-Trademark"><path class="cls-1" d="M138.15,1.44H142l3,7.92,3.17-7.92H152l2.24,14.82h-3.85l-1.08-8.53h0l-3.56,8.53h-1.53l-3.39-8.53h0l-1.24,8.53h-3.83Z"/><path class="cls-2" d="M56.29,16.34H52.72l-3-9.07-3,9.07H43.21L38.42,1.45h3.91l2.76,9.19,3.13-9.19h3.05l3.13,9.19,2.76-9.19h3.91Z"/><path class="cls-2" d="M73.09,10.23v6H69.57V10.78c0-1.5-.76-2.22-1.94-2.22a2.65,2.65,0,0,0-1.91,1v6.66H62.17V1.45h3.55v5a4.48,4.48,0,0,1,2.89-1C71.27,5.37,73.09,7.22,73.09,10.23Z"/><path class="cls-2" d="M85.82,11a5.72,5.72,0,0,1-11.44,0,5.72,5.72,0,0,1,11.44,0Zm-3.33,0a2.39,2.39,0,1,0-4.77,0,2.39,2.39,0,1,0,4.77,0Z"/><path class="cls-2" d="M90.78,16.26H87.23V1.41h3.55Z"/><path class="cls-2" d="M92.43,2.06a2.07,2.07,0,0,1,4.13,0,2.07,2.07,0,0,1-4.13,0Zm3.85,14.2H92.75V5.7h3.53Z"/><path class="cls-2" d="M100.66,12.65c.15.91.91,1.32,2,1.32.94,0,1.53-.28,1.53-.74s-.33-.63-1-.74L101,12.12c-1.82-.3-3.11-1.33-3.11-3.18,0-2.22,1.91-3.52,4.72-3.52,2.24,0,4.77.87,4.94,3.65h-3.15c-.07-.81-.81-1.18-1.79-1.18s-1.33.35-1.33.77.26.67,1.11.82l2,.33c2,.37,3.3,1.33,3.3,3.2,0,2.44-2.2,3.57-5,3.57s-5-1.15-5.22-4Z"/><path class="cls-2" d="M113.82,5.7V2.11h-3.53V5.7h-2.07v3h2.07v3.13c0,2.85,1.7,4.72,4.24,4.72a9.42,9.42,0,0,0,3.2-.52l-.39-3a10.66,10.66,0,0,1-1.87.26,1.45,1.45,0,0,1-1.65-1.59v-3h5.31v7.53h3.52V5.7Z"/><path class="cls-2" d="M120.87,4.05a2,2,0,0,0,2.06-1.95v0a2.07,2.07,0,0,0-4.14,0,2,2,0,0,0,2,2Z"/><path class="cls-2" d="M131.87,11.93h3.33a5.11,5.11,0,0,1-5.42,4.56A5.48,5.48,0,0,1,124,11a5.46,5.46,0,0,1,5.77-5.51A5.12,5.12,0,0,1,135.2,10h-3.33a2,2,0,0,0-2.07-1.59A2.34,2.34,0,0,0,127.39,11a2.35,2.35,0,0,0,2.41,2.55A2,2,0,0,0,131.87,11.93Z"/><path class="cls-1" d="M166.31,16.26h-3.52v-.59a5.22,5.22,0,0,1-2.9.82A5.36,5.36,0,0,1,154.64,11a5.35,5.35,0,0,1,5.25-5.5,5.15,5.15,0,0,1,2.9.8V5.7h3.52Zm-3.52-3.65V9.31a2.81,2.81,0,0,0-2.18-1,2.53,2.53,0,0,0-2.5,2.63,2.51,2.51,0,0,0,2.5,2.61,2.78,2.78,0,0,0,2.18-1Z"/><path class="cls-1" d="M184.33,13.08a10.66,10.66,0,0,1-1.87.26,1.45,1.45,0,0,1-1.65-1.59v-3h3.59v-3h-3.58V2.11h-3.53V5.7h-4.43V2.11h-3.54V5.7h-2.07v3h2.07v3.13c0,2.85,1.7,4.72,4.25,4.72a9.46,9.46,0,0,0,3.2-.52l-.4-3a10.66,10.66,0,0,1-1.87.26,1.45,1.45,0,0,1-1.65-1.59v-3h4.43v3.13c0,2.85,1.7,4.72,4.25,4.72a9.42,9.42,0,0,0,3.2-.52Z"/><path class="cls-1" d="M196.33,12h-7.51a2.27,2.27,0,0,0,2.37,1.7A1.82,1.82,0,0,0,192.8,13h3.51c-.52,2.17-2.55,3.55-5.16,3.55-3.48,0-5.77-2.31-5.77-5.53A5.3,5.3,0,0,1,191,5.46a5.13,5.13,0,0,1,5.38,5.29A8.86,8.86,0,0,1,196.33,12Zm-7.55-2.07h4.29A2,2,0,0,0,191,8.18,2.15,2.15,0,0,0,188.78,9.94Z"/><path class="cls-1" d="M205,8.88a5,5,0,0,0-3.63,1.33v6.05h-3.55V5.7h3.55V6.84A5.25,5.25,0,0,1,205,5.54Z"/><path class="cls-1" d="M208.62,12.65c.15.91.92,1.32,2,1.32s1.53-.28,1.53-.74-.33-.63-1-.74L209,12.12c-1.82-.3-3.11-1.33-3.11-3.18,0-2.22,1.91-3.52,4.72-3.52,2.24,0,4.77.87,5,3.65h-3.17c-.07-.81-.81-1.18-1.79-1.18s-1.33.35-1.33.77.26.67,1.11.82l2,.33c2,.37,3.31,1.33,3.31,3.2,0,2.44-2.2,3.57-5,3.57s-5-1.16-5.22-4Z"/><path class="cls-1" d="M9.59,19.7V6.82a5.63,5.63,0,0,0-1.1-3.33,4.93,4.93,0,0,1,.65,2.4c0,5.14-6.62,7.83-6.62,14.22,0,.16,0,.32.07.47A5.67,5.67,0,0,0,6.52,25a5.92,5.92,0,0,0,1.82.29h3.83v-.16C10.17,24.48,9.69,22.1,9.59,19.7Z"/><path class="cls-3" d="M8.49,3.49A5.62,5.62,0,0,0,3.93,1.17H0v.14c2.81.87,2.5,5.42,2.5,8.28l0,9.77a4.74,4.74,0,0,0,.06.75c0-6.39,6.62-9.09,6.62-14.22A4.93,4.93,0,0,0,8.49,3.49Z"/><path class="cls-1" d="M27.2,13.21c0,8.16-3.52,10.41-4.69,11a2.75,2.75,0,0,1-1.39.93v.16H24.9a6.43,6.43,0,0,0,1.38-.17,5.65,5.65,0,0,0,4.51-5.53v-10c0-2.61-.26-6.67,1.88-8C31.62,1.67,27.2,2.59,27.2,13.21Z"/><path class="cls-3" d="M29.35,1.17A5.65,5.65,0,0,0,23.7,6.82V19.51s-.07,1.31-.16,1.89a5.89,5.89,0,0,1-1,2.75c1.18-.52,4.69-2.78,4.69-10.95,0-10.62,4.43-11.54,5.47-11.6a2.6,2.6,0,0,1,.63-.3V1.17Z"/><path class="cls-1" d="M19.2,3.11a23.15,23.15,0,0,1-.6,9.57,22.3,22.3,0,0,1-4.91,9.48,6.63,6.63,0,0,0,2.93,3.43s3.68-1.69,3.68-7.45V7.86A9.67,9.67,0,0,0,19.2,3.11Z"/><path class="cls-3" d="M19.2,3.11A6.33,6.33,0,0,0,16.62.42S13,2.1,13,7.86V18.14a10.67,10.67,0,0,0,.54,3.5c.06.18.13.35.2.52a22.21,22.21,0,0,0,4.91-9.47A23.2,23.2,0,0,0,19.2,3.11Z"/><path class="cls-4" d="M40.81,21.13a1.44,1.44,0,0,1,1.62,1.41A1.52,1.52,0,0,1,40.71,24H40v1.19h-.72V21.13Zm0,2.23a.83.83,0,0,0,.92-.82c0-.44-.37-.74-.92-.74H40v1.56Z"/><path class="cls-4" d="M47.81,23.17a2.13,2.13,0,1,1-2.13-2.12,2.12,2.12,0,0,1,2.13,2.12Zm-.73,0a1.4,1.4,0,1,0-1.4,1.45,1.4,1.4,0,0,0,1.4-1.45Z"/><path class="cls-4" d="M53.46,25.23h-.7l-1-2.8-1,2.8h-.71l-1.35-4.1h.75l1,3,1-3h.61l1,3,1-3h.76Z"/><path class="cls-4" d="M56.78,22.86h2v.67h-2v1H59v.66h-3V21.13h3v.67H56.78Z"/><path class="cls-4" d="M61.22,23.86v1.35h-.73V21.13h1.67a1.42,1.42,0,0,1,1.59,1.37,1.31,1.31,0,0,1-.94,1.26L64,25.21h-.88L62,23.86Zm.93-.66c.5,0,.9-.26.9-.7s-.4-.7-.9-.7h-.93v1.4Z"/><path class="cls-4" d="M66,22.86h2v.67H66v1h2.25v.66h-3V21.13h3v.67H66Z"/><path class="cls-4" d="M71.21,21.13a2,2,0,0,1,2.17,2,2.07,2.07,0,0,1-2.17,2.06H69.68V21.13Zm0,3.41a1.39,1.39,0,0,0,1.44-1.34v-.05a1.37,1.37,0,0,0-1.39-1.35H70.4v2.74Z"/><path class="cls-4" d="M79.83,24.09c0,.67-.57,1.12-1.47,1.12h-2V21.13h1.9c.86,0,1.36.41,1.36,1.06a.94.94,0,0,1-.61.91A1,1,0,0,1,79.83,24.09ZM77.1,22.85h1.08c.51,0,.78-.22.78-.57s-.26-.52-.76-.52H77.1Zm1.23,1.72c.52,0,.79-.26.79-.56s-.29-.52-.76-.52H77.1v1.08Z"/><path class="cls-4" d="M83,23.84v1.37h-.73V23.84l-1.64-2.71h.8l1.2,2,1.21-2h.79Z"/><path class="cls-4" d="M85.26,22.7a.43.43,0,0,1,.46-.4.4.4,0,1,1-.07.79A.41.41,0,0,1,85.26,22.7Zm0,2.2a.43.43,0,1,1,.86,0,.43.43,0,0,1-.41.45h0a.41.41,0,0,1-.43-.4Z"/><path class="cls-4" d="M92.75,22.34H92a.79.79,0,0,0-.89-.68c-.5,0-.82.22-.82.59s.24.46.66.55l.53.1c.78.16,1.22.47,1.22,1.12s-.63,1.27-1.58,1.27a1.57,1.57,0,0,1-1.75-1.41h.71a1,1,0,0,0,1.08.78c.5,0,.8-.21.8-.55s-.14-.43-.6-.51l-.67-.13c-.78-.15-1.15-.55-1.15-1.15,0-.77.6-1.28,1.52-1.28A1.49,1.49,0,0,1,92.75,22.34Z"/><path class="cls-4" d="M95.75,21.8v3.41H95V21.8H93.6v-.67h3.56v.67Z"/><path class="cls-4" d="M98.53,24.31l-.38.9h-.78l1.79-4.09h.67l1.78,4.09h-.76l-.37-.9Zm1-2.32-.68,1.65h1.39Z"/><path class="cls-4" d="M106.43,25.21h-.57l-2.33-2.75v2.75h-.71V21.13h.54l2.35,2.81V21.13h.71Z"/><path class="cls-4" d="M109.46,21.13a2,2,0,0,1,2.18,2,2.07,2.07,0,0,1-2.18,2.06h-1.52V21.13Zm0,3.41a1.39,1.39,0,0,0,1.44-1.34v-.05a1.37,1.37,0,0,0-1.39-1.35h-.86v2.74Z"/><path class="cls-4" d="M113.57,24.31l-.38.9h-.78l1.79-4.09h.67l1.78,4.09h-.76l-.37-.9Zm1-2.32-.69,1.66h1.39Z"/><path class="cls-4" d="M118.59,23.86v1.35h-.72V21.13h1.67a1.41,1.41,0,0,1,1.58,1.37,1.29,1.29,0,0,1-.92,1.26l1.18,1.45h-.88l-1.1-1.35Zm.92-.66c.51,0,.9-.26.9-.7s-.39-.7-.9-.7h-.92v1.4Z"/><path class="cls-4" d="M124.14,21.13a2,2,0,0,1,2.18,2,2.07,2.07,0,0,1-2.18,2.06h-1.53V21.13Zm0,3.41a1.39,1.39,0,0,0,1.44-1.34v-.05a1.37,1.37,0,0,0-1.39-1.35h-.87v2.74Z"/><path class="cls-4" d="M131.37,21.13A1.43,1.43,0,0,1,133,22.54,1.51,1.51,0,0,1,131.27,24h-.72v1.19h-.71V21.13Zm0,2.23a.84.84,0,0,0,.93-.82c0-.44-.38-.74-.93-.74h-.78v1.56Z"/><path class="cls-4" d="M135,23.86v1.35h-.72V21.13h1.67a1.42,1.42,0,0,1,1.58,1.37,1.29,1.29,0,0,1-.93,1.26l1.18,1.45h-.87l-1.1-1.35Zm.92-.66c.51,0,.9-.26.9-.7s-.39-.7-.9-.7H135v1.4Z"/><path class="cls-4" d="M143,23.17a2.12,2.12,0,1,1-2.12-2.12A2.12,2.12,0,0,1,143,23.17Zm-.72,0a1.4,1.4,0,1,0-1.4,1.45,1.4,1.4,0,0,0,1.4-1.45v0Z"/><path class="cls-4" d="M147.62,23.62h.73a1.94,1.94,0,0,1-2,1.67,2.12,2.12,0,0,1,0-4.24h0a1.94,1.94,0,0,1,2,1.66h-.74a1.2,1.2,0,0,0-1.24-1,1.43,1.43,0,0,0,0,2.86A1.21,1.21,0,0,0,147.62,23.62Z"/><path class="cls-4" d="M150.51,22.86h2v.67h-2v1h2.24v.66h-3V21.13h3v.67h-2.24Z"/><path class="cls-4" d="M157.3,22.34h-.71a.79.79,0,0,0-.9-.68c-.49,0-.8.22-.8.59s.23.46.65.55l.53.1c.78.16,1.22.47,1.22,1.12s-.63,1.27-1.57,1.27A1.56,1.56,0,0,1,154,23.88h.71a1,1,0,0,0,1.08.78c.49,0,.79-.21.79-.55s-.13-.43-.6-.51l-.67-.13c-.78-.15-1.15-.55-1.15-1.15,0-.77.61-1.28,1.52-1.28A1.47,1.47,0,0,1,157.3,22.34Z"/><path class="cls-4" d="M161.91,22.34h-.71a.79.79,0,0,0-.9-.68c-.49,0-.81.22-.81.59s.24.46.66.55l.53.1c.78.16,1.22.47,1.22,1.12s-.63,1.27-1.57,1.27a1.57,1.57,0,0,1-1.75-1.41h.72a1,1,0,0,0,1.08.78c.49,0,.79-.21.79-.55s-.13-.43-.6-.51l-.67-.13c-.78-.15-1.15-.55-1.15-1.15,0-.77.61-1.28,1.52-1.28A1.48,1.48,0,0,1,161.91,22.34Z"/><path class="cls-4" d="M166.2,25.21h-.72V21.13h.72Z"/><path class="cls-4" d="M171.42,25.21h-.57l-2.31-2.75v2.75h-.72V21.13h.54l2.35,2.81V21.13h.71Z"/><path class="cls-4" d="M175.81,23.62h.75a2,2,0,0,1-2,1.67,2.12,2.12,0,0,1,0-4.24h0a2,2,0,0,1,2,1.66h-.75a1.2,1.2,0,0,0-1.24-1,1.43,1.43,0,0,0,0,2.86h0A1.2,1.2,0,0,0,175.81,23.62Z"/><path class="cls-4" d="M177.1,24.9a.42.42,0,0,1,.42-.41h0a.41.41,0,0,1,.44.38.41.41,0,0,1-.38.44h-.06a.41.41,0,0,1-.43-.4Z"/><path class="cls-5" d="M220.41,1.48h-.7V3.14h-.48V1.48h-.71V1h1.9ZM223,3.14h-.48V2l-.58.9h-.26L221.1,2V3.15h-.48V1H221l.83,1.24L222.64,1H223Z"/></g></g></g></g></svg>