<svg xmlns="http://www.w3.org/2000/svg" width="421.479" height="444.061" viewBox="0 0 421.479 444.061"><defs><style>.a{fill:#ebf7e2;}.b{fill:#c2c1c1;}.b,.c,.d,.e,.f,.g,.h,.i,.j,.k,.l,.m,.n,.o,.p{fill-rule:evenodd;}.c{fill:#788629;}.d{fill:#8c9d29;}.e{fill:#b9cc1b;}.f{fill:#542e10;}.g{fill:#dc3319;}.h{fill:#ed4e29;}.i{fill:#f1dfbc;}.j{fill:#ead3aa;}.k{fill:#e5c589;}.l,.q{fill:#dcb874;}.m{fill:#cca45a;}.n{fill:#42240f;}.o{fill:#703e17;}.p{fill:#f9b09b;}.r{fill:#c8a66d;}</style></defs><g transform="translate(-832.665 -104.404)"><rect class="a" width="421.479" height="325.884" transform="translate(832.665 186.277)"/><g transform="translate(715.957 53.68)"><path class="b" d="M376.465,530.482c76.574,0,139.029-12.491,139.029-27.806s-62.455-27.806-139.029-27.806-139.028,12.491-139.028,27.806S299.892,530.482,376.465,530.482Z" transform="translate(-8.611 -35.697)"/><path class="c" d="M338.085,234.605c27.136-72.322-13.575-111.933-56.143-117.485-20.375-2.658-32.332,3.014-51.948-9.8,5.789,22.161,4.565,37.379,5.084,50.735C236.157,185.782,262.479,246.84,338.085,234.605Z" transform="translate(-7.984 -4.764)"/><path class="d" d="M229.994,107.324c5.789,22.161,4.565,37.379,5.084,50.735,1.079,27.723,27.4,88.781,103.007,76.547C288.279,200.216,256.58,155.261,229.994,107.324Z" transform="translate(-7.984 -4.764)"/><path class="e" d="M339.54,232.5a297.023,297.023,0,0,1-62.224-58.071c-17.364-21.4-34.095-43.253-47.322-67.105h0c13.356,24.085,25.768,48.673,43.349,70.335a302.008,302.008,0,0,0,63.288,59.054Z" transform="translate(-7.984 -4.764)"/><path class="d" d="M340.165,219.1C304.27,123.426,358.123,71.028,414.43,63.682c26.953-3.515,42.772,3.989,68.718-12.957-7.657,29.315-6.037,49.445-6.725,67.113C475,154.51,440.178,235.277,340.165,219.1Z" transform="translate(-16.281)"/><path class="c" d="M484.213,50.725c-7.657,29.315-6.037,49.445-6.725,67.113C476.063,154.51,441.243,235.277,341.23,219.1,407.117,173.6,449.048,114.138,484.213,50.725Z" transform="translate(-17.346)"/><path class="e" d="M339.13,216.307c32.655-22.546,59.383-48.567,82.308-76.815,22.971-28.3,45.1-57.216,62.6-88.768h0c-17.667,31.859-34.086,64.386-57.343,93.042-23.3,28.712-50.485,55.17-83.716,78.115Z" transform="translate(-17.17)"/><path class="f" d="M328.24,225.595c.119-29.922-3.108-54.448-30.561-89.573-7.046-9.015,1.616-21.207,13.258-11.68,29.386,24.045,21.74,67.348,28.822,104.651Z" transform="translate(-13.468 -5.904)"/><path class="g" d="M502.476,341.618C490.02,423.97,423.9,490.717,354.8,490.717a98.658,98.658,0,0,1-34.976-6.246,98.645,98.645,0,0,1-34.967,6.246c-29.1,0-57.652-11.833-81.913-31.67-.623-.5-1.236-1.017-1.85-1.539.266-.266.522-.531.751-.806a25.248,25.248,0,0,0-17.181-41.973c-.559-.046-1.126-.064-1.694-.064a25.105,25.105,0,0,0-15.359,5.211c-.6-.9-1.2-1.813-1.8-2.729-.385-.6-.769-1.2-1.145-1.8q-1.14-1.813-2.244-3.654c-.366-.614-.733-1.227-1.1-1.85-.064-.11-.128-.229-.2-.339q-1.511-2.624-2.967-5.3c-.339-.641-.678-1.273-1.017-1.914s-.669-1.273-1-1.923-.65-1.291-.98-1.942-.641-1.291-.952-1.951q-1.429-2.94-2.748-5.935l-.879-2.006c-.256-.6-.5-1.191-.751-1.786-.357-.843-.705-1.685-1.044-2.537-.467-1.172-.925-2.354-1.383-3.544-.027-.092-.064-.183-.1-.275-.256-.687-.513-1.374-.76-2.07-.284-.769-.559-1.539-.833-2.317-.211-.614-.421-1.227-.632-1.85-.238-.7-.467-1.392-.7-2.1-.687-2.106-1.337-4.222-1.951-6.365l-.6-2.143c-.192-.714-.385-1.429-.577-2.152-.165-.623-.33-1.255-.485-1.887-.064-.247-.128-.5-.192-.76-.3-1.246-.6-2.5-.888-3.764a.329.329,0,0,1-.018-.1c-.165-.723-.33-1.456-.485-2.189s-.3-1.465-.449-2.2-.293-1.465-.43-2.207-.275-1.475-.4-2.216c-.082-.44-.156-.879-.229-1.328-.073-.394-.137-.8-.2-1.2l-.3-1.923a177.163,177.163,0,0,1-2.024-29.05c.009-.55.018-1.108.037-1.658.009-.6.027-1.2.055-1.8q.069-2.061.192-4.094c.055-.962.119-1.923.2-2.876.073-1.035.165-2.051.266-3.077.092-.87.183-1.731.284-2.583.055-.522.119-1.044.183-1.557.027-.211.055-.412.082-.614.073-.623.156-1.246.247-1.859.1-.733.211-1.456.321-2.18.092-.559.183-1.108.275-1.658.055-.348.119-.7.183-1.035.064-.44.147-.879.229-1.319.174-.916.348-1.823.531-2.729.183-.934.385-1.859.6-2.775.2-.9.4-1.8.632-2.683.211-.861.421-1.713.65-2.555.119-.467.247-.934.375-1.392.183-.678.366-1.346.568-2.015a.055.055,0,0,0,.009-.037c.247-.852.5-1.694.769-2.537s.531-1.658.806-2.482c.128-.394.256-.778.394-1.163.1-.293.2-.586.311-.879.348-1,.705-1.978,1.081-2.958.064-.183.137-.366.2-.549l.659-1.676.082-.192c.238-.6.485-1.209.742-1.8.522-1.255,1.072-2.491,1.63-3.718.275-.6.559-1.218.852-1.823.577-1.209,1.172-2.4,1.786-3.581.256-.5.522-1,.788-1.493l.275-.522.824-1.484c.632-1.154,1.3-2.29,1.987-3.407.339-.559.678-1.117,1.026-1.667.7-1.108,1.41-2.2,2.134-3.27.366-.54.733-1.072,1.108-1.6s.742-1.053,1.126-1.575c.769-1.053,1.548-2.088,2.345-3.1.394-.495.778-.98,1.172-1.465.412-.495.815-.989,1.218-1.484l1.246-1.438q1.278-1.47,2.628-2.885c.137-.156.284-.311.43-.458.449-.467.888-.925,1.346-1.383A98.919,98.919,0,0,1,182.8,210.544c1.136-.815,2.29-1.612,3.462-2.372.586-.385,1.181-.76,1.777-1.136s1.191-.733,1.786-1.09,1.209-.705,1.823-1.053a96.9,96.9,0,0,1,48.081-12.373c28.373,0,56.232,11.256,80.09,30.223,23.858-18.967,51.717-30.223,80.09-30.223A96.291,96.291,0,0,1,469.478,221.3a.2.2,0,0,1,.037.046.343.343,0,0,0-.064.11,23.96,23.96,0,0,0-.357,4.158,24.561,24.561,0,0,0,20.79,24.27.034.034,0,0,1,.009.027C502.65,275.211,507.714,307.036,502.476,341.618Z" transform="translate(0 -11.934)"/><path class="h" d="M226.451,244.778c-20.249,41.158-54.318,53.65-52.752,114.6.485,18.885,4.762,37.842,10.963,56.269-.559-.046-1.126-.064-1.694-.064a25.105,25.105,0,0,0-15.359,5.211c-.6-.9-1.2-1.813-1.8-2.729-.385-.6-.769-1.2-1.145-1.8q-1.14-1.813-2.244-3.654c-.366-.614-.733-1.227-1.1-1.85-.064-.11-.128-.229-.2-.339q-1.511-2.624-2.967-5.3c-.339-.641-.678-1.273-1.017-1.914s-.669-1.273-1-1.923-.65-1.291-.98-1.942-.641-1.291-.952-1.951q-1.429-2.94-2.748-5.935l-.879-2.006c-.256-.6-.5-1.191-.751-1.786-.357-.843-.705-1.685-1.044-2.537-.467-1.172-.925-2.354-1.383-3.544-.027-.092-.064-.183-.1-.275-.256-.687-.513-1.374-.76-2.07-.284-.769-.559-1.539-.833-2.317-.211-.614-.421-1.227-.632-1.85-.238-.7-.467-1.392-.7-2.1-.687-2.106-1.337-4.222-1.951-6.365l-.6-2.143c-.192-.714-.385-1.429-.577-2.152-.165-.623-.33-1.255-.485-1.887-.064-.247-.128-.5-.192-.76-.3-1.246-.6-2.5-.888-3.764a.329.329,0,0,1-.018-.1c-.165-.723-.33-1.456-.485-2.189s-.3-1.465-.449-2.2-.293-1.465-.43-2.207-.275-1.475-.4-2.216c-.082-.44-.156-.879-.229-1.328-.073-.394-.137-.8-.2-1.2l-.3-1.923a177.163,177.163,0,0,1-2.024-29.05c.009-.55.018-1.108.037-1.658.009-.6.027-1.2.055-1.8q.069-2.061.192-4.094c.055-.962.119-1.923.2-2.876.073-1.035.165-2.051.266-3.077.092-.87.183-1.731.284-2.583.055-.522.119-1.044.183-1.557.027-.211.055-.412.082-.614.073-.623.156-1.246.247-1.859.1-.733.211-1.456.321-2.18.092-.559.183-1.108.275-1.658.055-.348.119-.7.183-1.035.064-.44.147-.879.229-1.319.174-.916.348-1.823.531-2.729.183-.934.385-1.859.6-2.775.2-.9.4-1.8.632-2.683.211-.861.421-1.713.65-2.555.119-.467.247-.934.375-1.392.183-.678.366-1.346.568-2.015a.055.055,0,0,0,.009-.037c.247-.852.5-1.694.769-2.537s.531-1.658.806-2.482c.128-.394.256-.778.394-1.163.1-.293.2-.586.311-.879.348-1,.705-1.978,1.081-2.958.064-.183.137-.366.2-.549l.659-1.676.082-.192c.238-.6.485-1.209.742-1.8.522-1.255,1.072-2.491,1.63-3.718.275-.6.559-1.218.852-1.823.577-1.209,1.172-2.4,1.786-3.581.256-.5.522-1,.788-1.493l.275-.522.824-1.484c.641-1.154,1.31-2.29,1.987-3.407.339-.559.678-1.117,1.026-1.667.7-1.108,1.41-2.2,2.134-3.27.366-.54.733-1.072,1.108-1.6s.742-1.053,1.126-1.575c.769-1.053,1.548-2.088,2.345-3.1.394-.495.778-.98,1.172-1.465.412-.495.815-.989,1.218-1.484l1.246-1.438q1.278-1.47,2.628-2.885c.137-.156.284-.311.43-.458.449-.467.888-.925,1.346-1.383A98.918,98.918,0,0,1,182.8,211.46c1.136-.815,2.29-1.612,3.462-2.372.586-.385,1.181-.76,1.777-1.136s1.191-.733,1.786-1.09,1.209-.705,1.823-1.053a34.164,34.164,0,0,1,8.554-2.262C223.585,201.642,238.705,219.868,226.451,244.778Z" transform="translate(0 -12.85)"/><path class="i" d="M407.793,206.976c62.971,0,104.817,60.827,93.462,135.861S429.651,478.7,366.68,478.7a89.912,89.912,0,0,1-31.867-5.69L313.239,340.441,334.812,234.51C356.553,217.232,381.942,206.976,407.793,206.976Z" transform="translate(-14.991 -13.151)"/><path class="j" d="M409.775,206.976c62.971,0,104.817,60.827,93.462,135.861-6.544,43.251-29.338,81.779-59.53,106.661C511.753,341.687,452.563,191.071,336.8,234.51,358.535,217.232,383.925,206.976,409.775,206.976Z" transform="translate(-16.973 -13.151)"/><path class="k" d="M328.362,474.3a30.9,30.9,0,0,1-17.332,5.465c-34.25,0-67.02-58.423-73.2-130.494-8.109-94.648,23.875-161.6,90.528-113.7Z" transform="translate(-8.54 -14.221)"/><path class="l" d="M266.431,445.872c-14.529-23.869-25.316-58.308-28.6-96.6-8.109-94.648,23.875-161.6,90.528-113.7-70.894-18.08-86.5,84.775-61.932,210.292Z" transform="translate(-8.54 -14.221)"/><path class="l" d="M336.572,241.209l1.215,58.129L339,357.466l-1.216,58.129-1.215,58.129-1.214-58.129-1.216-58.129,1.216-58.127Z" transform="translate(-16.75 -16.032)"/><path class="m" d="M355.985,321.167c8.955,7.726,20.864,14.545,24.639,26.533,6.715,21.326-22.293,31.013-29.489,10.376-3.959-11.357-.36-22.909-.456-34.453l-.059-7.087Z" transform="translate(-18.023 -22.371)"/><path class="f" d="M353.268,322.545c7.64,6.592,20.222,14.1,23.674,25.066,5.461,17.347-17.579,25.038-23.4,8.355C349.878,345.447,353.359,333.685,353.268,322.545Z" transform="translate(-18.241 -22.877)"/><path class="n" d="M367.573,334.154c4.652,4.137,8.8,8.836,10.561,14.435,3.43,10.9-4.388,17.982-12.117,17.61C376.54,361.583,377.512,346.886,367.573,334.154Z" transform="translate(-19.432 -23.854)"/><path class="o" d="M359.285,337.986c3.649,0,7.07,4.987,7.645,11.138s-1.917,11.138-5.565,11.138-7.069-4.987-7.644-11.138S355.637,337.986,359.285,337.986Z" transform="translate(-18.391 -24.177)"/><path class="m" d="M327.977,321.571c-.354,13.517,1.2,29.032-4.066,40.945-9.373,21.194-28.58,2.127-19.837-19.005,4.813-11.632,13.265-16.635,19.987-24.94l4.127-5.1Z" transform="translate(-14.032 -22.114)"/><path class="f" d="M327.267,320.124c-.3,11.534,1.161,28.143-3.658,39.038-7.622,17.241-22.878,2.093-15.807-14.991C312.258,333.4,320.78,328.139,327.267,320.124Z" transform="translate(-14.38 -22.673)"/><path class="n" d="M327.3,341.207c-.256,7.109-1.077,14.165-3.541,19.729-4.787,10.83-12.587,8.877-15.973,1.694C315.4,368.763,324.472,359.167,327.3,341.207Z" transform="translate(-14.532 -24.448)"/><path class="o" d="M325.121,337.737c1.7,3.266.375,9.879-2.965,14.772s-7.424,6.214-9.124,2.95-.373-9.878,2.964-14.772S323.419,334.472,325.121,337.737Z" transform="translate(-14.911 -24.005)"/><path class="p" d="M207.874,224.837c7.568,5.726,6.14,20.372-3.194,32.713s-23.037,17.7-30.607,11.976-6.14-20.371,3.194-32.711,23.037-17.7,30.607-11.978Zm-43.1,49.378c-5.892,0-11.6,6.019-12.747,13.444s2.7,13.443,8.588,13.443,11.6-6.019,12.745-13.443S170.661,274.215,164.771,274.215Z" transform="translate(-1.405 -14.461)"/><path class="q" d="M211.211,460.339a25.133,25.133,0,0,1-6.383,16.778c-.229.275-.485.54-.751.806l-.009-.009c.238-.321.458-.659.669-1a25.744,25.744,0,0,0-34.042-36.478c-.037-.046-.064-.1-.1-.147a25.105,25.105,0,0,1,15.359-5.211c.568,0,1.136.018,1.694.064A25.245,25.245,0,0,1,211.211,460.339Z" transform="translate(-2.985 -32.348)"/><path class="q" d="M520.451,252.566a.227.227,0,0,1-.073.009,18.58,18.58,0,0,1-3.8.385,19.22,19.22,0,0,1-19.223-19.223,19.02,19.02,0,0,1,2.583-9.616,23.96,23.96,0,0,0-.357,4.158,24.561,24.561,0,0,0,20.79,24.27A.267.267,0,0,0,520.451,252.566Z" transform="translate(-30.486 -14.593)"/><path class="q" d="M302.059,267.736a22.312,22.312,0,1,1-5.826-13.177A22.3,22.3,0,0,1,302.059,267.736Z" transform="translate(-10.303 -16.55)"/><path class="r" d="M296.94,258.847a28.1,28.1,0,0,1-25.549,30.439c-.66.058-1.323.091-1.972.1a22.3,22.3,0,1,1,26.814-34.827A28.41,28.41,0,0,1,296.94,258.847Z" transform="translate(-10.303 -16.55)"/><path class="r" d="M500.238,224a.343.343,0,0,0-.064.11.465.465,0,0,1,.027-.156A.2.2,0,0,1,500.238,224Z" transform="translate(-30.724 -14.579)"/></g></g></svg>