<svg xmlns="http://www.w3.org/2000/svg" width="97.555" height="97.555" viewBox="0 0 97.555 97.555"><defs><style>.a{fill:#04b156;}.b,.c{fill:#fff;}.b{opacity:0.75;}</style></defs><g transform="translate(0 0)"><circle class="a" cx="48.778" cy="48.778" r="48.778"/><path class="b" d="M55.894,97.332V71.383A11.414,11.414,0,0,0,53.7,64.7a9.826,9.826,0,0,1,1.317,4.829C55.016,79.87,41.7,85.284,41.7,98.161c.049.293.1.634.146.927a11.49,11.49,0,0,0,7.9,8.829,11.794,11.794,0,0,0,3.707.585h7.658v-.293C57.065,106.99,56.089,102.161,55.894,97.332Z" transform="translate(-21.36 -33.141)"/><path class="c" d="M48.321,59.783a11.414,11.414,0,0,0-9.17-4.683H31.2v.293c5.658,1.756,5.024,10.926,5.024,16.682l-.049,19.706c0,.488.049,1.024.1,1.512C36.273,80.416,49.638,75,49.638,64.66A9.868,9.868,0,0,0,48.321,59.783Z" transform="translate(-15.981 -28.224)"/><path class="b" d="M130.643,80.213c0,16.438-7.073,20.974-9.463,22.047a5.723,5.723,0,0,1-2.78,1.9v.293h7.609a10.85,10.85,0,0,0,2.78-.341,11.472,11.472,0,0,0,9.121-11.121V72.9c0-5.268-.537-13.414,3.756-16.1C139.569,57,130.643,58.849,130.643,80.213Z" transform="translate(-60.647 -29.094)"/><path class="c" d="M137.9,55.1a11.345,11.345,0,0,0-11.365,11.365V92.025s-.146,2.634-.341,3.8a12.065,12.065,0,0,1-2.1,5.561c2.39-1.073,9.463-5.561,9.463-22.047,0-21.365,8.878-23.218,11.024-23.364a5.986,5.986,0,0,1,1.268-.585V55.1Z" transform="translate(-63.567 -28.224)"/><path class="b" d="M98.821,63.1A46.6,46.6,0,0,1,97.6,82.367c-2.1,7.9-5.707,14.633-9.9,19.072a13.428,13.428,0,0,0,5.9,6.926s7.414-3.414,7.414-14.975V72.66A19.89,19.89,0,0,0,98.821,63.1Z" transform="translate(-44.922 -32.321)"/><path class="c" d="M97.229,57.414A13.056,13.056,0,0,0,92.01,52S84.6,55.414,84.6,66.975V87.656a21.356,21.356,0,0,0,1.073,7.024c.146.341.244.683.39,1.024,4.195-4.439,7.8-11.17,9.9-19.072A45.6,45.6,0,0,0,97.229,57.414Z" transform="translate(-43.33 -26.636)"/><path class="a" d="M186.061,190.178h-1.366V193.3h-.878v-3.122H182.5V189.3h3.561Zm4.829,3.122h-.878V191.1l-1.073,1.658h-.488l-1.073-1.658v2.146H186.5V189.3h.634l1.561,2.341,1.561-2.341h.683Z" transform="translate(-93.481 -96.964)"/></g></svg>